<svg width="66" height="63" viewBox="0 0 66 63" fill="none" xmlns="http://www.w3.org/2000/svg">
<path d="M32.703 15.9463H32.6285C23.6164 15.9463 16.3105 22.918 16.3105 31.518V31.5891C16.3105 40.1891 23.6164 47.1607 32.6285 47.1607H32.703C41.7152 47.1607 49.021 40.1891 49.021 31.5891V31.518C49.021 22.918 41.7152 15.9463 32.703 15.9463Z" fill="#3E9494"/>
<path d="M35.8532 36.1194C31.6668 36.1194 28.2609 32.8682 28.2598 28.8733C28.2609 27.8606 29.125 27.0371 30.1839 27.0371C30.2928 27.0371 30.4005 27.0459 30.5036 27.0634C30.7306 27.0994 30.946 27.1727 31.1443 27.2832C31.1729 27.2996 31.1924 27.3258 31.197 27.3564L31.6393 30.0172C31.6451 30.0478 31.6348 30.0795 31.613 30.1025C31.3689 30.3605 31.0572 30.5465 30.7099 30.6394L30.5426 30.6842L30.6056 30.8384C31.1763 32.2251 32.3384 33.3329 33.7927 33.8797L33.9543 33.941L34.0013 33.7813C34.0987 33.45 34.2935 33.1525 34.5639 32.9196C34.5834 32.9021 34.6098 32.8933 34.6361 32.8933C34.6419 32.8933 34.6476 32.8933 34.6545 32.8944L37.4427 33.3165C37.476 33.322 37.5035 33.3395 37.5207 33.3668C37.6353 33.556 37.712 33.7627 37.751 33.9792C37.7693 34.0755 37.7774 34.1772 37.7774 34.2833C37.7774 35.2948 36.9144 36.1183 35.8532 36.1194Z" fill="#FDFDFD"/>
<path d="M43.2754 30.6772C43.0496 28.2429 41.8807 25.9846 39.9841 24.3191C38.076 22.6437 35.6006 21.7207 33.0118 21.7207C27.3299 21.7207 22.7069 26.1323 22.7069 31.5543C22.7069 33.374 23.2329 35.1468 24.2288 36.6909L22.0078 41.3824L29.1188 40.6596C30.3553 41.1429 31.6641 41.3879 33.0106 41.3879C33.3647 41.3879 33.728 41.3704 34.0925 41.3343C34.4133 41.3015 34.7377 41.2534 35.0563 41.1922C39.8145 40.2746 43.288 36.2447 43.3155 31.6068V31.5543C43.3155 31.259 43.3018 30.9638 43.2743 30.6783L43.2754 30.6772ZM29.3927 38.6003L25.4585 39.0006L26.6331 36.517L26.3982 36.2163C26.381 36.1944 26.3638 36.1726 26.3443 36.1474C25.3244 34.8034 24.7857 33.2155 24.7857 31.5554C24.7857 27.227 28.4759 23.7056 33.0118 23.7056C37.2612 23.7056 40.8631 26.8693 41.2103 30.908C41.2286 31.1245 41.239 31.3422 41.239 31.5565C41.239 31.6177 41.2378 31.6779 41.2367 31.7424C41.1496 35.3633 38.4988 38.4385 34.7904 39.2215C34.5073 39.2816 34.2174 39.3276 33.9286 39.3571C33.6283 39.3899 33.32 39.4063 33.0141 39.4063C31.9242 39.4063 30.8653 39.2051 29.8648 38.807C29.7537 38.7644 29.6448 38.7184 29.5428 38.6714L29.3938 38.6025L29.3927 38.6003Z" fill="#FDFDFD"/>
<path d="M65.26 31.5607C65.26 47.3947 53.0435 60.485 37.1732 62.6092C35.6893 62.8069 34.1711 62.9102 32.63 62.9102C30.8512 62.9102 29.1043 62.774 27.4032 62.5104C11.8667 60.1072 0 47.164 0 31.5607C0 14.2461 14.6105 0.208984 32.6323 0.208984C50.6542 0.208984 65.2646 14.2461 65.2646 31.5607H65.26Z" fill="#3E9494"/>
<path d="M37.1731 25.3838V32.2134H45.9668L44.5743 41.4133H37.1731V62.6096C35.6891 62.8073 34.1709 62.9105 32.6299 62.9105C30.851 62.9105 29.1042 62.7743 27.403 62.5107V41.4133H19.293V32.2134H27.403V23.8571C27.403 18.6728 31.777 14.4683 37.1753 14.4683V14.4727C37.1914 14.4727 37.2051 14.4683 37.2211 14.4683H45.9691V22.4248H40.2529C38.5541 22.4248 37.1753 23.7495 37.1753 25.3816L37.1731 25.3838Z" fill="white"/>
</svg>
