<svg width="66" height="65" viewBox="0 0 66 65" fill="none" xmlns="http://www.w3.org/2000/svg">
<path d="M32.7066 0H32.558C14.5767 0 0 14.471 0 32.3218V32.4694C0 50.3202 14.5767 64.7912 32.558 64.7912H32.7066C50.6879 64.7912 65.2646 50.3202 65.2646 32.4694V32.3218C65.2646 14.471 50.6879 0 32.7066 0Z" fill="#3E9494"/>
<path d="M42.7325 13.1821H22.5378C16.9587 13.1821 12.4199 17.688 12.4199 23.2267V41.5679C12.4199 47.1066 16.9587 51.6124 22.5378 51.6124H42.7325C48.3117 51.6124 52.8505 47.1066 52.8505 41.5679V23.2267C52.8505 17.688 48.3117 13.1821 42.7325 13.1821ZM15.9892 23.2267C15.9892 19.6424 18.9274 16.7255 22.5378 16.7255H42.7325C46.343 16.7255 49.2812 19.6424 49.2812 23.2267V41.5679C49.2812 45.1521 46.343 48.069 42.7325 48.069H22.5378C18.9274 48.069 15.9892 45.1521 15.9892 41.5679V23.2267Z" fill="white"/>
<path d="M32.634 41.738C37.8222 41.738 42.0454 37.5477 42.0454 32.3949C42.0454 27.2421 37.8245 23.0518 32.634 23.0518C27.4436 23.0518 23.2227 27.2421 23.2227 32.3949C23.2227 37.5477 27.4436 41.738 32.634 41.738ZM32.634 26.5974C35.8558 26.5974 38.4761 29.1988 38.4761 32.3972C38.4761 35.5955 35.8558 38.1969 32.634 38.1969C29.4123 38.1969 26.7919 35.5955 26.7919 32.3972C26.7919 29.1988 29.4123 26.5974 32.634 26.5974Z" fill="white"/>
<path d="M42.9166 24.5616C44.3137 24.5616 45.4524 23.4335 45.4524 22.0443C45.4524 20.655 44.316 19.5269 42.9166 19.5269C41.5173 19.5269 40.3809 20.655 40.3809 22.0443C40.3809 23.4335 41.5173 24.5616 42.9166 24.5616Z" fill="white"/>
</svg>
