<svg width="106" height="88" viewBox="0 0 106 88" fill="none" xmlns="http://www.w3.org/2000/svg">
<path d="M105.08 35.8071L94.9294 28.2271C94.8878 28.1887 94.8386 28.1617 94.7941 28.126L59.3057 1.6242C56.3972 -0.548671 52.1821 -0.5408 49.2861 1.64434L31.0243 15.4095V6.88464C31.0243 3.09188 27.5452 0.00664255 23.2682 0.00664255C18.9912 0.00664255 15.5121 3.09188 15.5121 6.88464V27.102L0.911278 38.1077C-0.176955 38.9271 -0.309427 40.3746 0.615922 41.3384C1.12715 41.8724 1.85438 42.1466 2.58657 42.1466C3.17858 42.1466 3.77321 41.9674 4.25924 41.6003L10.3415 37.0157V81.122C10.3415 84.9148 13.8206 88 18.0976 88H87.9026C92.1796 88 95.6587 84.9148 95.6587 81.122V34.7669L101.75 39.3155C102.215 39.6637 102.805 39.8545 103.414 39.8539C103.791 39.8542 104.163 39.7814 104.505 39.6404C104.847 39.4994 105.15 39.2937 105.393 39.0378C106.312 38.0696 106.172 36.6232 105.08 35.8071ZM90.4879 81.122C90.4879 82.3859 89.3277 83.4147 87.9025 83.4147H18.0975C16.6722 83.4147 15.5121 82.3859 15.5121 81.122V33.1182L19.7714 29.9076C19.7983 29.8874 19.8084 29.858 19.8341 29.8371C19.9728 29.7241 20.0712 29.5858 20.1796 29.4484C20.2664 29.338 20.3678 29.2387 20.4302 29.1187C20.4948 28.9957 20.515 28.8595 20.5544 28.7257C20.6005 28.5671 20.655 28.4149 20.6623 28.2517C20.6638 28.22 20.683 28.1933 20.683 28.1612V6.88464C20.683 5.62077 21.8431 4.59197 23.2683 4.59197C24.6936 4.59197 25.8537 5.62077 25.8537 6.88464V20.3663C25.8537 22.196 28.3673 23.6608 30.1131 22.1127L52.634 5.13826C53.5997 4.40841 55.0035 4.4061 55.9743 5.13155L90.488 30.9056V81.122H90.4879Z" fill="#7B7B7B"/>
</svg>
