<svg width="149" height="145" viewBox="0 0 149 145" fill="none" xmlns="http://www.w3.org/2000/svg">
<path d="M112.577 43.5H86.0883V33.8334C86.085 32.1256 85.3863 30.4855 84.1447 29.2771C82.9063 28.072 81.2209 27.3921 79.4661 27.3889H33.1105C31.3556 27.3921 29.6703 28.0688 28.4286 29.2771C27.1869 30.4855 26.4916 32.1256 26.4883 33.8334V111.167C26.4916 112.874 27.1902 114.515 28.4286 115.72C29.6703 116.928 31.3556 117.608 33.1105 117.611H112.577C114.332 117.608 116.014 116.928 117.256 115.72C118.497 114.511 119.196 112.874 119.199 111.167V49.9445C119.196 48.2367 118.497 46.5966 117.256 45.3882C116.017 44.1831 114.332 43.5032 112.577 43.5ZM62.9105 111.167H49.6661V95.0556H62.9105V111.167ZM79.4661 111.167H69.5327V95.0556C69.5294 93.3478 68.8308 91.7077 67.5891 90.5026C66.3507 89.2942 64.6654 88.6144 62.9105 88.6111H49.6661C47.9112 88.6144 46.2258 89.2942 44.9841 90.5026C43.7458 91.7077 43.0471 93.3478 43.0438 95.0556V111.167H33.1105L33.1072 33.8334H79.4661V111.167ZM112.577 111.167H86.0883V49.9445H112.577V111.167ZM102.644 72.5C102.644 73.138 102.448 73.7599 102.084 74.2916C101.723 74.82 101.203 75.2325 100.601 75.4774C99.9949 75.7222 99.3294 75.7835 98.6871 75.661C98.0447 75.5354 97.4553 75.2292 96.9918 74.7781C96.5282 74.327 96.2137 73.7535 96.0845 73.1284C95.9587 72.5032 96.0216 71.8556 96.2733 71.2659C96.5249 70.6795 96.9487 70.1736 97.4917 69.8224C98.0381 69.4679 98.6771 69.2778 99.3327 69.2778C100.21 69.2778 101.055 69.6161 101.674 70.2219C102.296 70.8245 102.644 71.6461 102.644 72.5ZM96.0216 59.6111C96.0216 58.9731 96.217 58.3512 96.5812 57.8196C96.9421 57.2911 97.4619 56.8787 98.0646 56.6338C98.6705 56.3889 99.336 56.3277 99.9784 56.4501C100.621 56.5758 101.21 56.8819 101.674 57.333C102.137 57.7841 102.452 58.3577 102.581 58.9828C102.707 59.6079 102.644 60.2556 102.392 60.8452C102.141 61.4317 101.717 61.9376 101.174 62.2888C100.627 62.6432 99.9883 62.8334 99.3327 62.8334C98.4553 62.8334 97.6109 62.495 96.9918 61.8892C96.3693 61.2867 96.0216 60.465 96.0216 59.6111ZM69.5327 72.5C69.5327 73.138 69.3374 73.7599 68.9731 74.2916C68.6122 74.82 68.0924 75.2325 67.4898 75.4774C66.8838 75.7222 66.2183 75.7835 65.5759 75.661C64.9336 75.5354 64.3442 75.2292 63.8807 74.7781C63.4171 74.327 63.1025 73.7535 62.9734 73.1284C62.8476 72.5032 62.9105 71.8556 63.1621 71.2659C63.4138 70.6795 63.8376 70.1736 64.3806 69.8224C64.927 69.4679 65.566 69.2778 66.2216 69.2778C67.0991 69.2778 67.9434 69.6161 68.5626 70.2219C69.1851 70.8245 69.5327 71.6461 69.5327 72.5ZM69.5327 59.6111C69.5327 60.2491 69.3374 60.871 68.9731 61.4027C68.6122 61.9311 68.0924 62.3436 67.4898 62.5885C66.8838 62.8334 66.2183 62.8946 65.5759 62.7721C64.9336 62.6465 64.3442 62.3404 63.8807 61.8892C63.4171 61.4381 63.1025 60.8646 62.9734 60.2395C62.8476 59.6144 62.9105 58.9667 63.1621 58.377C63.4138 57.7906 63.8376 57.2847 64.3806 56.9335C64.927 56.579 65.566 56.3889 66.2216 56.3889C67.0991 56.3889 67.9434 56.7272 68.5626 57.333C69.1851 57.9356 69.5327 58.7572 69.5327 59.6111ZM69.5327 46.7222C69.5327 47.3602 69.3374 47.9821 68.9731 48.5138C68.6122 49.0422 68.0924 49.4547 67.4898 49.6996C66.8838 49.9445 66.2183 50.0057 65.5759 49.8832C64.9336 49.7576 64.3442 49.4515 63.8807 49.0004C63.4171 48.5492 63.1025 47.9757 62.9734 47.3506C62.8476 46.7255 62.9105 46.0778 63.1621 45.4881C63.4138 44.9017 63.8376 44.3958 64.3806 44.0446C64.927 43.6901 65.566 43.5 66.2216 43.5C67.0991 43.5 67.9434 43.8384 68.5626 44.4441C69.1851 45.0467 69.5327 45.8684 69.5327 46.7222ZM49.6661 72.5C49.6661 73.138 49.4707 73.7599 49.1065 74.2916C48.7456 74.82 48.2257 75.2325 47.6231 75.4774C47.0172 75.7222 46.3516 75.7835 45.7093 75.661C45.0669 75.5354 44.4775 75.2292 44.014 74.7781C43.5504 74.327 43.2359 73.7535 43.1067 73.1284C42.9809 72.5032 43.0438 71.8556 43.2955 71.2659C43.5471 70.6795 43.9709 70.1736 44.514 69.8224C45.0603 69.4679 45.6993 69.2778 46.3549 69.2778C47.2324 69.2778 48.0767 69.6161 48.6959 70.2219C49.3184 70.8245 49.6661 71.6461 49.6661 72.5ZM49.6661 59.6111C49.6661 60.2491 49.4707 60.871 49.1065 61.4027C48.7456 61.9311 48.2257 62.3436 47.6231 62.5885C47.0172 62.8334 46.3516 62.8946 45.7093 62.7721C45.0669 62.6465 44.4775 62.3404 44.014 61.8892C43.5504 61.4381 43.2359 60.8646 43.1067 60.2395C42.9809 59.6144 43.0438 58.9667 43.2955 58.377C43.5471 57.7906 43.9709 57.2847 44.514 56.9335C45.0603 56.579 45.6993 56.3889 46.3549 56.3889C47.2324 56.3889 48.0767 56.7272 48.6959 57.333C49.3184 57.9356 49.6661 58.7572 49.6661 59.6111ZM49.6661 46.7222C49.6661 47.3602 49.4707 47.9821 49.1065 48.5138C48.7456 49.0422 48.2257 49.4547 47.6231 49.6996C47.0172 49.9445 46.3516 50.0057 45.7093 49.8832C45.0669 49.7576 44.4775 49.4515 44.014 49.0004C43.5504 48.5492 43.2359 47.9757 43.1067 47.3506C42.9809 46.7255 43.0438 46.0778 43.2955 45.4881C43.5471 44.9017 43.9709 44.3958 44.514 44.0446C45.0603 43.6901 45.6993 43.5 46.3549 43.5C47.2324 43.5 48.0767 43.8384 48.6959 44.4441C49.3184 45.0467 49.6661 45.8684 49.6661 46.7222Z" fill="#7B7B7B"/>
</svg>
