<svg width="106" height="92" viewBox="0 0 106 92" fill="none" xmlns="http://www.w3.org/2000/svg">
<path d="M106 63.2525C106 54.9533 102.002 47.4869 95.6584 42.2346V34.8762L101.749 39.4391C102.215 39.7884 102.804 39.9798 103.413 39.9793C103.79 39.9796 104.163 39.9065 104.505 39.7651C104.847 39.6237 105.15 39.4174 105.393 39.1607C106.312 38.1893 106.172 36.7385 105.08 35.9199L59.3057 1.63054C56.3946 -0.551382 52.182 -0.542328 49.2861 1.65074L31.0243 15.4576V6.90713C31.0243 3.1026 27.5451 0.00770749 23.2682 0.00770749C18.9913 0.00770749 15.5121 3.1026 15.5121 6.90713V27.1863L0.911286 38.2274C-0.176896 39.0494 -0.309461 40.5013 0.615885 41.4682C1.1271 42.0038 1.85425 42.2789 2.58649 42.2789C3.17859 42.2789 3.77318 42.0992 4.25921 41.7309L10.3414 37.1316V81.1329C10.3414 84.9374 13.8206 88.0323 18.0975 88.0323H57.38C62.1729 90.5375 67.7332 92 73.6829 92C80.3006 92 86.4557 90.2154 91.5846 87.1674C92.2643 86.8377 92.8965 86.4436 93.4342 85.9555C101.062 80.6924 106 72.485 106 63.2525ZM15.5121 81.133V33.2216L19.7714 30.0006C19.7983 29.9804 19.8083 29.951 19.834 29.9298C19.9727 29.8166 20.0713 29.6777 20.1794 29.5401C20.2662 29.4294 20.3677 29.3297 20.4301 29.2094C20.4946 29.086 20.515 28.9493 20.5543 28.8151C20.6003 28.6561 20.655 28.5034 20.6622 28.3397C20.6636 28.3078 20.6828 28.281 20.6828 28.249V6.90724C20.6828 5.63946 21.8429 4.6074 23.2682 4.6074C24.6934 4.6074 25.8536 5.63934 25.8536 6.90724V20.4298C25.8536 20.542 25.9079 20.6382 25.9254 20.746C25.9504 20.9062 25.9684 21.0619 26.0321 21.2161C26.097 21.373 26.1982 21.5047 26.2982 21.6433C26.3622 21.7333 26.3899 21.8355 26.4697 21.9189C26.4926 21.9428 26.5256 21.9518 26.5493 21.9747C26.6765 22.0978 26.8321 22.1851 26.9866 22.2812C27.1118 22.3589 27.2247 22.4496 27.3609 22.5056C27.4967 22.5617 27.6472 22.5792 27.7945 22.6137C27.9769 22.6562 28.1524 22.7055 28.3403 22.7118C28.375 22.7131 28.4041 22.7295 28.439 22.7295C28.5613 22.7295 28.6661 22.6821 28.7839 22.6676C28.9686 22.6454 29.1483 22.6285 29.3259 22.5702C29.4998 22.5131 29.6456 22.4239 29.7997 22.3363C29.9019 22.2787 30.0182 22.2535 30.1131 22.1815L52.6353 5.15418C53.5998 4.42309 55.0048 4.42204 55.9743 5.14861L90.5261 31.0313C90.5213 31.0896 90.4881 31.1392 90.4881 31.1987V38.7442C85.5842 36.0733 79.8426 34.5049 73.6833 34.5049C55.8634 34.5049 41.3662 47.4009 41.3662 63.2526C41.3662 71.1115 44.9363 78.2382 50.7014 83.4328H18.0974C16.6722 83.4328 15.5121 82.4008 15.5121 81.133ZM46.5365 63.2525C46.5365 49.9376 58.7148 39.1045 73.6829 39.1045C88.651 39.1045 100.829 49.9376 100.829 63.2525C100.829 76.5673 88.651 87.4004 73.6829 87.4004C58.7148 87.4004 46.5365 76.5673 46.5365 63.2525Z" fill="#7B7B7B"/>
</svg>
