<svg width="83" height="88" viewBox="0 0 83 88" fill="none" xmlns="http://www.w3.org/2000/svg">
<path d="M61.1434 40.2045C65.4408 35.9301 68.0859 30.273 68.0859 24.0533C68.0859 10.7903 56.1595 0 41.5001 0C26.8406 0 14.9142 10.7903 14.9142 24.0533C14.9142 30.2729 17.5593 35.9301 21.8568 40.2045C15.0184 43.6696 0 54.7901 0 85.6532C0 86.9491 1.16133 87.9999 2.59378 87.9999C4.02612 87.9999 5.18757 86.9492 5.18757 85.6532C5.18757 53.5173 22.1697 45.059 26.005 43.5591C30.3736 46.4079 35.7159 48.1066 41.5001 48.1066C47.2844 48.1066 52.6268 46.4079 56.9954 43.559C60.8358 45.0611 77.8124 53.5242 77.8124 85.6533C77.8124 86.9492 78.9738 88 80.4062 88C81.8387 88 83 86.9493 83 85.6533C82.9999 54.7901 67.9815 43.6696 61.1434 40.2045ZM20.1016 24.0533C20.1016 13.3787 29.7014 4.69329 41.4999 4.69329C53.2984 4.69329 62.8983 13.3787 62.8983 24.0533C62.8983 34.7279 53.2984 43.4132 41.4999 43.4132C29.7014 43.4132 20.1016 34.7279 20.1016 24.0533Z" fill="#7B7B7B"/>
</svg>
