<svg width="66" height="65" viewBox="0 0 66 65" fill="none" xmlns="http://www.w3.org/2000/svg">
<path d="M32.7066 0.208984H32.558C14.5767 0.208984 0 14.6799 0 32.5308V32.6783C0 50.5292 14.5767 65.0002 32.558 65.0002H32.7066C50.6879 65.0002 65.2646 50.5292 65.2646 32.6783V32.5308C65.2646 14.6799 50.6879 0.208984 32.7066 0.208984Z" fill="#3E9494"/>
<path d="M38.9924 42.0814C30.6397 42.0814 23.8441 35.3329 23.8418 27.0407C23.8441 24.9388 25.5681 23.2295 27.6809 23.2295C27.8981 23.2295 28.113 23.2476 28.3188 23.284C28.7716 23.3589 29.2014 23.511 29.597 23.7402C29.6542 23.7743 29.693 23.8288 29.7022 23.8923L30.5848 29.4151C30.5962 29.4787 30.5756 29.5445 30.5322 29.5922C30.0452 30.1279 29.4232 30.5138 28.7304 30.7067L28.3966 30.7998L28.5223 31.1198C29.661 33.9981 31.9796 36.2976 34.8812 37.4326L35.2036 37.5597L35.2973 37.2283C35.4917 36.5405 35.8804 35.9231 36.42 35.4396C36.4589 35.4033 36.5115 35.3851 36.5641 35.3851C36.5755 35.3851 36.587 35.3851 36.6007 35.3874L42.1638 36.2636C42.2301 36.2749 42.285 36.3112 42.3193 36.368C42.548 36.7607 42.7012 37.1897 42.7789 37.6391C42.8155 37.8389 42.8315 38.05 42.8315 38.2702C42.8315 40.3699 41.1097 42.0792 38.9924 42.0814Z" fill="#FDFDFD"/>
<path d="M53.8046 30.7862C53.3542 25.7333 51.0219 21.0459 47.2377 17.5887C43.4306 14.1112 38.4917 12.1953 33.3264 12.1953C21.9898 12.1953 12.7659 21.3523 12.7659 32.6067C12.7659 36.3839 13.8154 40.0635 15.8024 43.2687L11.3711 53.0068L25.5591 51.5063C28.0262 52.5097 30.6374 53.0181 33.3241 53.0181C34.0307 53.0181 34.7555 52.9818 35.4826 52.9069C36.1229 52.8388 36.77 52.7389 37.4056 52.6118C46.8993 50.7073 53.8298 42.3425 53.8847 32.7157V32.6067C53.8847 31.9938 53.8572 31.3809 53.8024 30.7885L53.8046 30.7862ZM26.1055 47.232L18.2559 48.0628L20.5996 42.9078L20.1308 42.2835C20.0965 42.2381 20.0622 42.1927 20.0234 42.1405C17.9883 39.3507 16.9137 36.0548 16.9137 32.609C16.9137 23.6245 24.2763 16.3153 33.3264 16.3153C41.8049 16.3153 48.9915 22.8822 49.6843 31.2652C49.7209 31.7146 49.7415 32.1664 49.7415 32.6113C49.7415 32.7384 49.7392 32.8632 49.7369 32.9971C49.5631 40.513 44.2744 46.8961 36.8751 48.5213C36.3104 48.6462 35.7319 48.7415 35.1556 48.8028C34.5566 48.8709 33.9415 48.9049 33.331 48.9049C31.1565 48.9049 29.0437 48.4873 27.0476 47.661C26.8258 47.5725 26.6086 47.4772 26.4051 47.3796L26.1078 47.2365L26.1055 47.232Z" fill="#FDFDFD"/>
</svg>
